<svg version="1.1" id="Layer_1" xmlns="http://www.w3.org/2000/svg" xmlns:xlink="http://www.w3.org/1999/xlink" x="0px" y="0px"
	 width="100%" viewBox="0 0 1008 400" enable-background="new 0 0 1008 400" xml:space="preserve">
<path fill="#000000" opacity="1.000000" stroke="none" 
	d="
M376.347168,186.000122 
	C376.347748,217.821426 376.314941,249.142761 376.365387,280.463959 
	C376.385284,292.808716 370.636993,301.506714 360.247498,307.795197 
	C332.618256,324.518494 305.100403,341.425995 277.546448,358.273651 
	C272.290924,361.487122 266.960388,364.595490 261.860901,368.042908 
	C250.924103,375.436462 239.982330,374.991425 229.060547,368.292877 
	C200.953110,351.053986 172.901123,333.724762 144.829269,316.427887 
	C132.780411,309.003876 120.860374,301.360779 108.657043,294.200317 
	C96.331772,286.968323 90.306526,276.823181 90.471527,262.260468 
	C90.856483,228.284714 90.604034,194.301773 90.615562,160.321732 
	C90.619003,150.166977 90.965355,139.999649 90.571846,129.860718 
	C90.100723,117.721733 95.570061,108.873550 105.346863,102.795029 
	C126.274635,89.783600 147.482925,77.222771 168.597855,64.513123 
	C184.005447,55.238873 199.506088,46.117859 214.855026,36.747963 
	C226.659119,29.542061 238.705215,29.335375 250.352173,36.197197 
	C275.455963,50.987125 300.253540,66.296661 325.184143,81.380760 
	C336.581329,88.276550 347.884888,95.337097 359.435516,101.966408 
	C370.970215,108.586571 376.369171,118.409821 376.346497,131.521606 
	C376.315369,149.514389 376.344055,167.507278 376.347168,186.000122 
M122.756714,109.297447 
	C120.090759,111.001701 117.397751,112.665321 114.764793,114.419113 
	C110.053680,117.557144 110.128792,119.665924 115.109810,122.706924 
	C122.215919,127.045349 129.351547,131.335785 136.495621,135.611557 
	C144.352707,140.314041 152.147110,145.131683 160.139847,149.592773 
	C164.274399,151.900452 165.971375,150.585739 165.808182,145.856476 
	C165.779480,145.024658 165.716019,144.191635 165.619247,143.364960 
	C164.662689,135.193817 166.504013,127.860313 172.089752,121.638748 
	C173.687927,119.858635 174.712311,117.933823 174.702728,115.380150 
	C174.669693,106.578560 178.865128,100.110512 186.339310,95.807655 
	C189.310104,94.097389 191.621185,92.013115 193.570633,89.172997 
	C200.357727,79.285004 212.373032,74.704124 224.165833,77.333527 
	C226.732788,77.905876 228.925766,77.625320 231.338699,76.421761 
	C243.068268,70.571083 254.847260,73.428665 262.637360,84.019875 
	C265.104492,87.374069 267.962891,89.513206 272.044800,90.838379 
	C281.546326,93.923012 288.357483,99.834724 289.217377,110.604042 
	C289.394379,112.821037 290.750671,114.084160 292.056854,115.635971 
	C297.377167,121.956764 301.427338,128.671082 297.725769,137.435699 
	C296.349274,140.695038 297.114624,143.897202 298.470703,147.105896 
	C305.927979,164.750763 291.366760,177.658279 279.855316,179.109314 
	C275.503998,179.657806 273.209351,181.460327 271.573792,185.006927 
	C266.395050,196.236542 256.943512,201.408020 245.309494,203.268021 
	C239.448257,204.205093 238.349289,205.158585 238.346924,211.315369 
	C238.329590,256.632904 238.341873,301.950470 238.344055,347.268005 
	C238.344254,351.377838 238.697113,355.348083 242.825928,357.659607 
	C246.918472,359.950836 250.564987,358.361389 254.061478,356.192657 
	C270.900146,345.748199 287.693298,335.230286 304.550171,324.815338 
	C320.133087,315.187500 335.728058,305.577118 351.416779,296.123474 
	C357.663422,292.359406 360.848694,287.471130 360.731110,279.855194 
	C360.325256,253.568726 359.917816,227.268936 360.332520,200.987183 
	C360.703125,177.499313 360.381989,154.016327 360.725677,130.535156 
	C360.809143,124.832047 358.553558,120.554100 354.367401,117.109451 
	C352.058838,115.209793 349.609955,113.435219 347.050507,111.892723 
	C312.820129,91.263367 278.507324,70.770126 244.345062,50.028812 
	C236.660782,45.363369 229.585419,45.211029 221.897552,49.848064 
	C189.108841,69.624977 156.220184,89.236198 122.756714,109.297447 
M224.671982,249.500092 
	C224.669281,238.169098 224.732376,226.837540 224.634644,215.507370 
	C224.589371,210.259750 222.755890,205.729614 218.061783,202.883774 
	C183.312393,181.816666 148.555969,160.761047 113.748413,139.790329 
	C111.323570,138.329422 109.008339,136.248764 105.246689,136.233810 
	C105.246689,138.813858 105.246910,141.114426 105.246658,143.414993 
	C105.242317,183.073288 105.354111,222.732193 105.139214,262.389343 
	C105.094193,270.698547 108.697212,276.324371 115.332497,280.526062 
	C119.693283,283.287476 124.144119,285.906281 128.519379,288.645294 
	C158.162094,307.202087 187.788574,325.784912 217.448654,344.313904 
	C219.232056,345.428009 221.172333,347.377319 223.322617,346.385132 
	C225.763733,345.258759 224.614563,342.501160 224.619339,340.481812 
	C224.690338,310.488068 224.670303,280.494049 224.671982,249.500092 
M275.447937,137.683701 
	C279.375031,138.075119 282.552582,136.839539 283.599457,132.811279 
	C284.607513,128.932251 282.742615,126.042427 279.305267,124.156357 
	C275.433411,122.031860 273.792328,119.060143 275.381836,114.632874 
	C276.120728,112.574890 275.263916,110.639252 274.058746,109.010651 
	C271.551758,105.622818 267.893677,103.728661 263.928619,103.154533 
	C258.463928,102.363251 254.580841,100.325905 253.049545,94.602470 
	C252.616989,92.985771 251.117996,91.482475 249.768875,90.321365 
	C247.481247,88.352524 244.824539,86.553093 241.628876,87.804756 
	C238.179688,89.155731 238.316589,92.351494 238.319672,95.430298 
	C238.348282,124.059731 238.334793,152.689209 238.338913,181.318665 
	C238.340210,190.323334 241.109451,192.070969 249.600998,188.393692 
	C250.970413,187.800674 252.337631,187.136032 253.569305,186.302658 
	C259.724487,182.137985 260.739075,176.150681 256.221863,170.394226 
	C253.992462,167.553238 252.375595,164.556335 252.718506,160.820374 
	C253.127457,156.364563 255.815964,154.650940 260.274902,155.346893 
	C264.733124,156.042709 266.358398,159.485001 268.545380,162.612335 
	C270.978333,166.091400 276.054962,167.190933 280.229034,164.973404 
	C283.985352,162.977844 287.560608,159.968353 286.890594,155.397964 
	C286.152161,150.360977 281.609283,150.161301 277.421936,150.339417 
	C276.757721,150.367676 276.089142,150.360504 275.425354,150.322006 
	C271.883698,150.116592 269.085236,148.663971 268.879913,144.842987 
	C268.675690,141.042053 269.951294,137.869370 275.447937,137.683701 
M199.173813,158.290512 
	C194.843185,158.430084 190.542435,158.349380 186.268173,157.413712 
	C183.951950,156.906677 181.920776,157.663239 180.894531,159.999756 
	C179.815292,162.456955 181.948700,163.263458 183.393951,164.168381 
	C194.817581,171.321304 206.218872,178.514938 217.780197,185.440369 
	C222.145432,188.055222 224.597290,186.622330 224.610580,181.694916 
	C224.686844,153.379822 224.693726,125.064262 224.606903,96.749214 
	C224.590973,91.553688 220.618835,88.569336 215.500519,89.624367 
	C212.709351,90.199722 209.823837,91.152763 208.084702,93.473701 
	C203.570679,99.497803 198.950531,105.263115 191.709656,108.293007 
	C190.444702,108.822319 189.156067,110.235092 189.703461,111.939514 
	C190.264893,113.687630 192.014557,113.636887 193.501282,113.644501 
	C198.226212,113.668694 202.795380,114.404121 207.052002,116.540749 
	C211.294434,118.670258 212.827835,123.027702 210.990295,127.510773 
	C209.877960,130.224579 205.290115,131.342712 201.302933,129.667923 
	C199.003922,128.702225 196.802948,127.575150 194.326965,127.022102 
	C188.805450,125.788780 183.010315,128.331009 180.435394,133.283722 
	C178.180466,137.620926 179.957443,142.187759 184.665070,143.633316 
	C186.701874,144.258743 188.890182,144.488632 191.028931,144.666565 
	C198.405121,145.280228 205.230255,142.107178 212.534698,141.462524 
	C213.661041,142.574265 211.856659,143.744553 212.792664,145.388565 
	C215.247253,149.699860 213.633377,153.203888 209.077850,155.362534 
	C206.208664,156.722107 203.245728,157.809708 199.173813,158.290512 
z"/>
<path fill="#000000" opacity="1.000000" stroke="none" 
	d="
M644.997314,184.509766 
	C630.938660,184.395370 617.284851,184.446091 603.633728,184.280075 
	C600.188416,184.238174 598.437744,185.738846 597.439087,188.804840 
	C594.812988,196.867004 592.057678,204.887283 589.463074,212.959351 
	C588.918152,214.654617 588.478638,216.221558 586.361267,216.230301 
	C579.405457,216.259033 572.449402,216.241104 565.975525,216.241104 
	C564.459412,214.420074 565.071167,213.185165 565.488281,211.929993 
	C579.222412,170.597427 593.048950,129.294922 606.549805,87.886238 
	C608.160889,82.944824 610.495178,81.266129 615.435486,81.628288 
	C620.403381,81.992470 625.432007,81.905380 630.411194,81.619179 
	C634.445190,81.387314 636.421936,83.077904 637.674927,86.793121 
	C644.103210,105.853256 650.697266,124.857491 657.249817,143.875641 
	C664.993652,166.351624 672.746338,188.824600 680.525818,211.288284 
	C681.023682,212.725769 681.606995,214.088562 680.647156,216.213455 
	C673.838379,216.213455 666.747986,216.259766 659.658813,216.187302 
	C657.308105,216.163284 656.922302,214.185593 656.356812,212.405960 
	C653.941162,204.804092 651.429016,197.232590 649.054077,189.618210 
	C648.385864,187.475998 647.664673,185.513412 644.997314,184.509766 
M621.444153,112.928802 
	C615.144714,129.289719 609.939453,145.986954 604.774658,163.970123 
	C615.097107,163.970123 624.186646,164.013138 633.275513,163.954956 
	C639.301819,163.916397 640.171692,162.973770 638.339050,157.143951 
	C634.108948,143.687363 629.637756,130.305099 625.100403,116.948402 
	C624.534241,115.281738 624.253662,112.981728 621.444153,112.928802 
z"/>
<path fill="#000000" opacity="1.000000" stroke="none" 
	d="
M425.234436,246.203613 
	C422.255066,245.487000 422.692200,243.392822 422.691040,241.652359 
	C422.664581,202.503418 422.700439,163.354416 422.629364,124.205597 
	C422.623047,120.725311 423.909882,119.435349 427.347015,119.619827 
	C431.167542,119.824883 435.007935,119.682335 438.839417,119.653900 
	C442.024750,119.630257 444.854919,119.215508 445.667847,123.953857 
	C446.275330,127.494820 449.340546,125.650063 451.221710,124.393494 
	C457.601562,120.131966 464.422791,117.688393 472.235168,117.594879 
	C487.464722,117.412552 499.545807,123.649681 506.629211,136.748093 
	C518.021667,157.814636 518.396240,179.720276 505.604218,200.359711 
	C494.315186,218.574112 470.508942,223.637527 451.845825,213.125443 
	C446.425323,210.072311 445.361420,210.691635 445.320312,217.095352 
	C445.267883,225.258133 445.192657,233.423203 445.336670,241.583603 
	C445.396790,244.991806 444.179291,246.442398 440.701294,246.326141 
	C435.709259,246.159225 430.707916,246.270966 425.234436,246.203613 
M458.348267,139.698166 
	C456.017059,140.729630 454.328857,142.588623 452.406189,144.174744 
	C442.203949,152.591156 442.787018,181.864395 452.135315,191.600006 
	C463.047577,202.964417 481.392822,200.361023 487.947174,185.968765 
	C491.838013,177.425003 492.187531,168.428879 490.735107,159.155151 
	C488.565582,145.302795 475.369476,132.554993 458.348267,139.698166 
z"/>
<path fill="#000000" opacity="1.000000" stroke="none" 
	d="
M864.564575,207.606293 
	C840.370728,228.740738 798.043884,218.287689 789.427612,184.523972 
	C785.057800,167.400772 786.359070,151.154755 796.504761,136.323853 
	C807.557495,120.166939 828.696594,113.717102 849.544250,119.734344 
	C865.939026,124.466362 878.596130,141.313812 879.194763,160.191086 
	C879.665710,175.041199 880.650208,172.152893 867.711548,172.295914 
	C849.725037,172.494736 831.733704,172.430984 813.746399,172.266144 
	C809.532654,172.227539 808.319641,173.199265 809.130493,177.699142 
	C813.131653,199.904800 835.602844,206.066895 849.579590,195.440536 
	C851.721558,193.812057 853.803528,191.961441 854.748108,189.448822 
	C856.308777,185.297165 859.141479,184.132416 863.288208,184.578934 
	C868.304993,185.119141 873.436707,183.777222 879.107849,185.000031 
	C875.790039,193.905151 871.839661,201.583237 864.564575,207.606293 
M815.832336,155.668747 
	C827.320679,155.667007 838.809204,155.696152 850.297363,155.651474 
	C856.759460,155.626343 857.697083,154.090836 854.997559,148.113007 
	C852.069824,141.629776 847.153809,137.577896 840.218689,135.826889 
	C825.981201,132.232132 811.833374,141.250641 810.757751,154.854706 
	C811.939209,155.971436 813.502075,155.548721 815.832336,155.668747 
z"/>
<path fill="#000000" opacity="1.000000" stroke="none" 
	d="
M745.846069,136.890320 
	C749.294189,131.959747 752.554321,127.332954 755.770874,122.676086 
	C756.733948,121.281700 757.643860,119.796394 759.557312,119.785271 
	C766.837952,119.742950 774.118958,119.768196 781.285278,119.768196 
	C782.112976,122.687660 780.361755,124.059685 779.262634,125.603363 
	C770.089783,138.486023 760.938232,151.385284 751.603516,164.150299 
	C749.221680,167.407532 750.758362,169.676773 752.551880,172.193100 
	C761.731995,185.072769 770.910828,197.953430 780.051086,210.861435 
	C780.979553,212.172699 782.471680,213.239349 782.267456,215.881638 
	C777.593506,216.857117 772.623352,215.757156 767.849609,216.433563 
	C760.821838,217.429367 756.427002,214.755203 752.887634,208.695847 
	C748.783264,201.669174 743.798767,195.150116 739.093262,188.483459 
	C736.257812,184.466263 735.004761,184.459427 732.133972,188.541946 
	C726.486694,196.572586 720.866821,204.627319 715.468079,212.825180 
	C713.670349,215.554977 711.548279,216.476730 708.421082,216.397537 
	C701.968262,216.234070 695.508484,216.348328 689.381531,216.348328 
	C688.342468,214.217773 689.264893,213.176285 690.043396,212.097244 
	C699.492493,199.000504 708.885742,185.862778 718.432922,172.837936 
	C720.681824,169.769882 721.152771,167.252182 718.769897,163.915771 
	C709.770508,151.315292 701.000061,138.551086 692.169617,125.830376 
	C691.059692,124.231567 689.706360,122.720192 689.266174,119.849800 
	C697.292908,119.849800 705.009521,119.759346 712.721130,119.915977 
	C714.556580,119.953255 715.184387,121.978508 716.092834,123.340195 
	C720.898071,130.543076 725.630371,137.795547 730.516785,144.942795 
	C731.962097,147.056900 733.023254,149.705399 736.300659,150.542877 
	C739.402100,146.106766 742.521729,141.644669 745.846069,136.890320 
z"/>
<path fill="#000000" opacity="1.000000" stroke="none" 
	d="
M898.649780,106.999908 
	C898.673157,99.839622 898.753906,93.178825 898.694702,86.519287 
	C898.667358,83.447403 899.770020,81.834015 903.068604,81.970589 
	C907.124084,82.138504 911.297974,80.866913 916.156128,83.303078 
	C911.870300,84.704216 908.335938,84.138084 904.868164,84.157692 
	C902.802002,84.169373 900.445618,84.053818 900.742615,87.031700 
	C901.714722,96.778343 900.896606,106.637306 902.620972,116.327744 
	C903.132996,119.204803 903.638550,122.033630 907.829285,121.324615 
	C910.497986,120.873085 910.966125,123.947830 912.730042,124.989082 
	C914.691833,126.128174 914.924683,119.576736 918.440918,125.342453 
	C918.440918,110.553169 918.440918,97.167290 918.440918,83.781403 
	C918.883484,83.751160 919.325989,83.720924 919.768555,83.690681 
	C920.833130,85.825600 920.959534,88.191635 920.959961,90.584892 
	C920.967407,129.880692 920.988770,169.176498 920.966248,208.472275 
	C920.961731,216.346207 920.884094,216.346161 912.972778,216.350601 
	C898.651062,216.358627 898.651123,216.358627 898.650940,201.911484 
	C898.650635,170.440964 898.650269,138.970428 898.649780,106.999908 
z"/>
<path fill="#000000" opacity="1.000000" stroke="none" 
	d="
M553.339783,152.000122 
	C553.342346,171.799774 553.239197,191.100464 553.425964,210.398331 
	C553.468689,214.812012 552.331665,216.862625 547.576416,216.416000 
	C543.782471,216.059662 539.917236,216.130829 536.106506,216.372253 
	C531.962219,216.634811 530.657471,215.018311 530.689758,210.884613 
	C530.860046,189.091095 530.766174,167.295563 530.777527,145.500732 
	C530.781189,138.513458 530.910217,131.525085 530.818237,124.539391 
	C530.769165,120.816605 531.888306,119.024986 536.062012,119.452789 
	C540.346802,119.891991 544.707703,119.770271 549.026917,119.631454 
	C552.288269,119.526649 553.414917,120.876205 553.374573,124.048584 
	C553.258057,133.197769 553.337097,142.349426 553.339783,152.000122 
z"/>
<path fill="#000000" opacity="1.000000" stroke="none" 
	d="
M748.923767,292.274963 
	C750.026978,281.157715 754.073486,272.454285 764.067383,267.071594 
	C779.924988,258.530792 799.288147,266.688843 803.792297,284.051239 
	C806.951172,296.227661 805.812744,307.630890 796.718750,317.007660 
	C788.502625,325.479309 778.440857,327.205383 767.394775,323.322845 
	C757.310303,319.778351 752.038818,312.108673 749.831909,302.100983 
	C749.161499,299.060974 748.413330,295.922302 748.923767,292.274963 
M761.468140,289.219513 
	C760.936096,295.799408 761.323120,302.205627 765.305420,307.838165 
	C771.195190,316.168549 781.526855,316.731598 788.344421,309.134491 
	C794.112671,302.706635 794.488220,288.990417 789.098755,281.585663 
	C784.529053,275.307220 777.640503,273.234924 770.570374,276.414093 
	C765.495911,278.695862 763.139771,283.299896 761.468140,289.219513 
z"/>
<path fill="#000000" opacity="1.000000" stroke="none" 
	d="
M672.141479,267.519836 
	C685.428772,274.165131 690.747192,287.359344 686.887268,303.340027 
	C683.909607,315.667999 673.748413,323.225952 659.960999,323.319214 
	C654.133789,323.358643 648.303833,323.220215 642.479370,323.350708 
	C639.220398,323.423706 637.597595,322.449646 637.622498,318.839813 
	C637.733887,302.699097 637.719299,286.556732 637.613220,270.415894 
	C637.591736,267.148743 638.468628,265.339569 642.072205,265.578827 
	C651.969177,266.236023 662.032349,264.120667 672.141479,267.519836 
M660.968933,276.347870 
	C658.312866,276.338959 655.656616,276.343323 653.000732,276.317291 
	C650.538757,276.293182 649.340515,277.465546 649.345154,279.950623 
	C649.363342,289.579376 649.346008,299.208160 649.360535,308.836945 
	C649.363220,310.603119 649.732971,312.441895 651.854492,312.499969 
	C656.295776,312.621582 660.806519,313.426086 665.155640,311.769135 
	C672.610840,308.928802 676.090027,302.280762 675.640320,291.761200 
	C675.314453,284.137817 670.371460,278.636444 660.968933,276.347870 
z"/>
<path fill="#000000" opacity="1.000000" stroke="none" 
	d="
M454.082581,288.778137 
	C457.788971,289.952759 461.192474,290.834656 464.393860,292.192902 
	C471.552094,295.229950 475.158142,301.248352 474.680420,308.820923 
	C474.251007,315.627502 469.407471,321.429871 462.365204,323.534637 
	C451.851471,326.676971 441.894012,326.209839 433.472748,318.306946 
	C429.821716,314.880646 428.014069,310.470154 428.922821,305.333862 
	C435.916199,303.248230 438.598663,304.165283 442.024078,309.680084 
	C445.181183,314.762817 454.809479,316.437775 459.447784,312.711212 
	C462.815125,310.005798 462.633240,305.448822 458.941528,303.039673 
	C455.972656,301.102264 452.529175,300.275146 449.132324,299.475861 
	C445.888550,298.712646 442.717438,297.822540 439.604401,296.594330 
	C433.091064,294.024567 429.060669,289.480377 428.786346,282.436432 
	C428.515839,275.490356 431.878601,270.190430 438.062897,267.106140 
	C446.978027,262.659943 456.023438,262.902527 464.832184,267.541138 
	C467.679810,269.040680 469.790070,271.510071 471.240540,274.383972 
	C472.663666,277.203705 474.669617,280.812347 472.415619,283.226349 
	C470.004547,285.808533 465.812378,284.349152 462.383881,284.206146 
	C460.951752,284.146454 460.941223,282.612854 460.430878,281.600861 
	C457.749054,276.282684 452.118988,273.876190 446.570129,275.629333 
	C444.007599,276.438995 441.945862,278.043152 441.660522,280.737366 
	C441.409668,283.105865 443.277740,284.803101 445.254517,285.712036 
	C447.953278,286.952942 450.866608,287.727264 454.082581,288.778137 
z"/>
<path fill="#000000" opacity="1.000000" stroke="none" 
	d="
M574.300293,292.971466 
	C574.312805,296.297821 574.210876,299.136108 574.359497,301.961182 
	C574.745972,309.307739 579.945129,314.638275 586.571777,314.618408 
	C592.952759,314.599274 597.543457,309.341858 597.633850,301.714203 
	C597.748352,292.052185 597.741638,282.388580 597.755737,272.725616 
	C597.766663,265.244598 598.254700,264.787048 605.829590,265.538971 
	C606.798340,265.635132 607.760864,265.793701 609.324280,266.003693 
	C609.324280,273.392975 609.323364,280.679443 609.324524,287.965881 
	C609.325378,293.297272 609.391296,298.629547 609.318787,303.959900 
	C609.150513,316.332489 599.429382,325.136108 585.817383,325.314606 
	C573.239868,325.479553 562.845764,315.998016 562.690552,303.963745 
	C562.544373,292.636414 562.755737,281.304443 562.604797,269.977234 
	C562.555176,266.257477 563.717957,264.698425 567.565796,265.467712 
	C569.489868,265.852417 571.500671,265.802887 574.299988,266.011414 
	C574.299988,274.944763 574.299988,283.711060 574.300293,292.971466 
z"/>
<path fill="#000000" opacity="1.000000" stroke="none" 
	d="
M512.701416,310.985260 
	C512.691406,300.989288 512.533752,291.486755 512.744141,281.992371 
	C512.836853,277.807617 511.067596,276.204468 507.146942,276.322601 
	C505.648590,276.367737 504.128967,276.168152 502.651123,276.346252 
	C498.151520,276.888489 496.423218,275.183441 496.547882,270.490295 
	C496.652100,266.568542 497.734619,265.433594 501.744415,265.543610 
	C513.234863,265.858978 524.741577,265.794983 536.236877,265.595459 
	C540.179138,265.527039 541.440491,266.880493 541.445557,270.778564 
	C541.450684,274.763031 540.346558,276.392670 536.084412,276.392029 
	C524.957703,276.390320 524.965027,276.565155 524.973816,287.608917 
	C524.981873,297.760010 524.727966,307.919434 525.075684,318.058533 
	C525.242920,322.935181 522.969788,323.456665 519.044739,323.410248 
	C515.143372,323.364136 511.949371,323.289429 512.652283,317.975281 
	C512.933899,315.845856 512.701660,313.648438 512.701416,310.985260 
z"/>
<path fill="#000000" opacity="1.000000" stroke="none" 
	d="
M724.237305,310.981628 
	C724.219971,313.477112 723.986145,315.502411 724.223389,317.470886 
	C724.790588,322.177094 722.701172,323.420990 718.218018,323.466675 
	C713.770874,323.511993 712.518066,322.068207 712.582092,317.719055 
	C712.810181,302.225616 712.811584,286.724640 712.579651,271.231323 
	C712.512634,266.751343 714.113647,265.496735 718.381775,265.533356 
	C722.417664,265.567963 724.441467,266.294952 724.342285,270.996277 
	C724.064819,284.154297 724.239014,297.321838 724.237305,310.981628 
z"/>
<path fill="#000000" opacity="1.000000" stroke="none" 
	d="
M840.621948,320.144104 
	C840.592773,313.052246 840.680298,306.389038 840.464661,299.735626 
	C840.380310,297.133942 841.260498,295.990601 843.784546,295.976288 
	C849.777649,295.942291 855.770813,295.913605 861.763733,295.853729 
	C864.310730,295.828278 865.311646,297.130249 865.297363,299.572205 
	C865.258484,306.232361 865.261841,312.893005 865.293823,319.553253 
	C865.305481,321.985809 864.304321,323.296265 861.755005,323.287109 
	C855.594360,323.264984 849.433594,323.275391 843.272888,323.294037 
	C841.420166,323.299652 840.466187,322.495483 840.621948,320.144104 
M861.485535,320.200348 
	C863.707947,318.125122 861.899780,316.007874 861.296936,313.467529 
	C861.590210,318.469208 856.542786,316.135895 854.856445,318.713593 
	C856.320251,321.441925 858.684875,320.615906 861.485535,320.200348 
z"/>
<path fill="#000000" opacity="1.000000" stroke="none" 
	d="
M553.549866,87.815765 
	C556.599915,94.817513 555.561890,100.791229 550.843323,104.930023 
	C546.774414,108.498970 539.574890,109.111008 534.493286,106.319984 
	C528.184814,102.855125 526.177734,93.521286 530.379517,87.188988 
	C534.355103,81.197578 544.495728,79.645676 550.322693,84.218384 
	C551.473450,85.121399 552.342102,86.383911 553.549866,87.815765 
z"/>
<path fill="#000000" opacity="1.000000" stroke="none" 
	d="
M873.661255,279.848755 
	C873.658142,275.548157 873.753845,271.727325 873.636169,267.913086 
	C873.546387,265.003845 874.648254,263.650146 877.674683,263.706085 
	C897.116272,264.065491 892.636719,260.719513 893.447449,278.685059 
	C893.637268,282.891541 892.395264,284.882721 887.849243,284.405029 
	C884.564087,284.059845 881.213745,284.229675 877.896912,284.324310 
	C875.052185,284.405426 873.421021,283.419159 873.661255,279.848755 
z"/>
<path fill="#000000" opacity="1.000000" stroke="none" 
	d="
M316.698853,280.415344 
	C318.022186,284.212128 319.190125,287.650665 320.537262,291.616760 
	C315.626923,292.906158 311.048309,292.342590 306.521606,292.087708 
	C304.633270,291.981415 304.429657,289.990509 304.053986,288.685089 
	C299.467682,272.749878 297.947144,275.398224 284.169128,275.366150 
	C269.026154,275.330902 271.378021,273.287781 266.726776,287.756409 
	C265.633545,291.157104 263.941345,292.816315 260.299774,292.352814 
	C257.220459,291.960876 254.013779,292.966766 251.111786,291.732483 
	C250.228821,289.786621 251.214111,288.257385 251.745743,286.739258 
	C259.441559,264.763947 267.229706,242.820862 274.875000,220.828094 
	C275.955933,217.718628 277.408691,216.427582 280.959656,216.543411 
	C294.244629,216.976715 294.144409,216.862732 298.478699,229.266083 
	C304.406372,246.229248 310.513306,263.129761 316.698853,280.415344 
M293.496033,258.618378 
	C292.038239,254.224792 290.646271,249.807800 289.094116,245.447815 
	C288.350830,243.359940 287.108612,241.363754 284.598328,241.399231 
	C282.240692,241.432541 281.380585,243.561905 280.680542,245.402847 
	C279.681885,248.029297 278.999237,250.774109 278.065369,253.427475 
	C276.894806,256.753448 276.161560,260.060669 279.938049,262.134491 
	C283.709503,264.205536 291.748444,262.406952 293.496033,258.618378 
z"/>
<path fill="#000000" opacity="1.000000" stroke="none" 
	d="
M343.349182,256.000122 
	C343.343872,266.830688 343.228210,277.163025 343.392090,287.490906 
	C343.450409,291.164612 342.179718,292.461731 338.474640,292.383850 
	C327.017181,292.142853 328.746582,293.109222 328.700958,282.888824 
	C328.611694,262.894562 328.815948,242.897919 328.575043,222.906158 
	C328.516205,218.025146 330.153534,216.173141 334.871155,216.764374 
	C336.020844,216.908463 337.222961,216.958313 338.363617,216.793289 
	C342.535461,216.189789 343.447113,218.314758 343.398895,222.009674 
	C343.253235,233.171463 343.347992,244.336395 343.349182,256.000122 
z"/>
<path fill="#000000" opacity="1.000000" stroke="none" 
	d="
M261.690643,132.701111 
	C258.586365,134.735825 255.591354,135.430725 252.457031,134.006836 
	C248.159546,132.054520 246.534485,127.934708 248.274277,123.787384 
	C250.280609,119.004692 254.708008,116.957542 259.126495,118.769547 
	C263.518982,120.570892 265.363068,124.809456 263.658875,129.403458 
	C263.262146,130.472992 262.544495,131.423477 261.690643,132.701111 
z"/>
</svg>